<?xml version="1.0" encoding="utf-8"?>
<!-- Generator: Adobe Illustrator 21.0.0, SVG Export Plug-In . SVG Version: 6.00 Build 0)  -->
<svg version="1.1" id="Layer_1" xmlns="http://www.w3.org/2000/svg" xmlns:xlink="http://www.w3.org/1999/xlink" x="0px" y="0px"
	 viewBox="0 0 500 500" style="enable-background:new 0 0 500 500;" xml:space="preserve">
<style type="text/css">
	.st0{fill:#353635;}
</style>
<g>
	<path class="st0" d="M378.1,133.8c-26.1-26.1-68.5-26.1-94.6,0L232.3,185c-2.2,2.2-2.2,5.7,0,7.9s5.7,2.2,7.9,0l51.2-51.2
		c10.5-10.5,24.5-16.2,39.4-16.2c14.9,0,28.9,5.8,39.4,16.2c10.5,10.5,16.2,24.5,16.2,39.4s-5.8,28.9-16.2,39.4l-67,67
		c-21.7,21.7-57.1,21.7-78.8,0c-2.2-2.2-5.7-2.2-7.9,0s-2.2,5.7,0,7.9c13,13,30.2,19.6,47.3,19.6s34.2-6.5,47.3-19.6l67-67
		c12.6-12.6,19.5-29.4,19.5-47.3S390.6,146.4,378.1,133.8z"/>
	<path class="st0" d="M252,338.7L208.6,382c-10.5,10.5-24.5,16.2-39.4,16.2s-28.9-5.8-39.4-16.2c-21.7-21.7-21.7-57.1,0-78.8l63-63
		c21.7-21.7,57.1-21.7,78.8,0c2.2,2.2,5.7,2.2,7.9,0c2.2-2.2,2.2-5.7,0-7.9c-26.1-26.1-68.5-26.1-94.6,0l-63.1,63.1
		c-12.6,12.6-19.5,29.4-19.5,47.3s6.9,34.7,19.5,47.3c12.6,12.6,29.4,19.5,47.3,19.5c17.9,0,34.7-6.9,47.3-19.5l43.3-43.3
		c2.2-2.2,2.2-5.7,0-7.9C257.7,336.5,254.1,336.5,252,338.7z"/>
</g>
</svg>
