<?xml version="1.0" encoding="utf-8"?>
<!-- Generator: Adobe Illustrator 21.0.0, SVG Export Plug-In . SVG Version: 6.00 Build 0)  -->
<svg version="1.1" id="Layer_1" xmlns="http://www.w3.org/2000/svg" xmlns:xlink="http://www.w3.org/1999/xlink" x="0px" y="0px"
	 viewBox="0 0 500 500" style="enable-background:new 0 0 500 500;" xml:space="preserve">
<style type="text/css">
	.st0{fill:#353635;}
</style>
<g>
	<path class="st0" d="M405.1,246.3H387v-32.5c0-7.8-6.4-14.2-14.2-14.2h-6.6v-93.3H159.1v10.4h-15.5v10.4H128v36.3h-6.6
		c-7.8,0-14.2,6.4-14.2,14.2v226.4h0c0,2.9,0.9,5.8,2.7,8.2c2.5,3.3,6.4,5.2,10.6,5.2h231.9c6,0,11.3-4,12.7-9.4l53-145.3v-0.9
		C418.1,252.8,412.6,246.3,405.1,246.3z M372.9,210c2.1,0,3.8,1.7,3.8,3.8v32.5h-10.4V210H372.9z M355.9,116.8v82.9v46.6H173.2
		c-1.2,0-2.4,0.2-3.5,0.5c-0.1,0-0.2,0-0.3,0V116.8H355.9z M159.1,127.1v132.6l-0.3,0.9l-4.9,13.3V127.1H159.1z M138.3,137.5h5.2
		v164.8l-5.2,14.2V163.4V137.5z M117.6,177.5c0-2.1,1.7-3.8,3.8-3.8h6.6v170.7l-10.4,28.3V177.5z M355.3,404.8
		c-0.3,1.3-1.5,2.2-2.8,2.2H120.5c-1.3,0-2-0.7-2.3-1.2c-0.3-0.4-0.8-1.3-0.6-2.1l10.4-28.5v0l15.5-42.6l0,0l15.5-42.6v0l10-27.5
		l0.4-1l0,0l0.8-2.3l0.1-0.4c0.3-1.3,1.5-2.2,2.8-2.2h182.7h10.4H387h18.1c2,0,2.5,2.8,2.6,4.2L355.3,404.8z"/>
	<path class="st0" d="M200.5,194.5h124.3c2.9,0,5.2-2.3,5.2-5.2c0-2.9-2.3-5.2-5.2-5.2H200.5c-2.9,0-5.2,2.3-5.2,5.2
		S197.6,194.5,200.5,194.5z"/>
	<path class="st0" d="M200.5,158.2h51.8c2.9,0,5.2-2.3,5.2-5.2s-2.3-5.2-5.2-5.2h-51.8c-2.9,0-5.2,2.3-5.2,5.2
		S197.6,158.2,200.5,158.2z"/>
	<path class="st0" d="M200.5,230.7h124.3c2.9,0,5.2-2.3,5.2-5.2s-2.3-5.2-5.2-5.2H200.5c-2.9,0-5.2,2.3-5.2,5.2
		S197.6,230.7,200.5,230.7z"/>
</g>
</svg>
