<?xml version="1.0" encoding="utf-8"?>
<!-- Generator: Adobe Illustrator 21.0.0, SVG Export Plug-In . SVG Version: 6.00 Build 0)  -->
<svg version="1.1" id="Layer_1" xmlns="http://www.w3.org/2000/svg" xmlns:xlink="http://www.w3.org/1999/xlink" x="0px" y="0px"
	 viewBox="0 0 500 500" style="enable-background:new 0 0 500 500;" xml:space="preserve">
<style type="text/css">
	.st0{fill:#353635;}
</style>
<path class="st0" d="M424.3,155.5c0-0.1,0.1-0.3,0.1-0.4c0-0.4,0-0.9-0.1-1.3c0-0.1,0-0.2,0-0.3c-0.1-0.6-0.3-1.1-0.6-1.7
	c0-0.1-0.1-0.2-0.2-0.3c0,0,0,0,0,0c0,0,0,0,0,0c0-0.1-0.1-0.1-0.1-0.2c-0.4-0.5-0.8-1-1.3-1.3c-0.1-0.1-0.2-0.1-0.4-0.2
	c-0.4-0.3-0.9-0.5-1.4-0.7c-0.2-0.1-0.4-0.1-0.7-0.1c-0.4-0.1-0.8-0.1-1.3-0.1c-0.2,0-0.5,0-0.7,0.1c-0.2,0-0.3,0-0.4,0L80.2,218.6
	c-2.4,0.5-4.2,2.4-4.6,4.9s0.9,4.8,3,6l96.6,50.9l16.9,94c0,0.1,0,0.1,0,0.2c-0.1,0.5-0.1,0.9,0,1.4c0,0.2,0.1,0.5,0.1,0.7
	c0.1,0.6,0.3,1.1,0.6,1.6c0.1,0.1,0.1,0.2,0.1,0.3c0,0,0,0.1,0.1,0.1c0.1,0.1,0.2,0.2,0.3,0.3c0.3,0.3,0.6,0.6,0.9,0.9
	c0.1,0,0.1,0.1,0.1,0.1c0.1,0.1,0.2,0.1,0.3,0.1c0.4,0.2,0.7,0.4,1.1,0.6c0.2,0.1,0.3,0.1,0.5,0.2c0.5,0.2,1.1,0.3,1.6,0.3h0l0,0
	l0,0l0.1,0c0.1,0,0.2,0,0.3,0c1.6,0,3.1-0.7,4.1-1.8l64.3-42.9l67.4,43.8c1,0.6,2.1,0.9,3.2,0.9c0.6,0,1.2-0.1,1.8-0.3
	c1.7-0.6,3-1.8,3.6-3.5L424,156.6c0.1-0.2,0.1-0.4,0.2-0.6c0-0.1,0-0.2,0-0.3C424.3,155.7,424.3,155.6,424.3,155.5z M357.1,192.6
	L217.7,295.1c-0.2,0.2-0.4,0.4-0.6,0.6c-0.1,0.1-0.2,0.1-0.2,0.2c-0.1,0.1-0.2,0.3-0.3,0.4c-0.1,0.1-0.2,0.3-0.3,0.4
	c-0.2,0.3-0.4,0.7-0.5,1.1c0,0.1-0.1,0.1-0.1,0.2c0,0,0,0,0,0.1l-16,51.9L187,279.7L357.1,192.6z M208.6,361.1l15.8-52.3l24.6,16
	l7.1,4.6l-24,16L208.6,361.1z M377.8,168.9L180.5,270l-82.1-43.3L377.8,168.9z M334.4,366.4l-89.5-58.1l-13.5-8.8l175.1-128.8
	L334.4,366.4z"/>
</svg>
