<?xml version="1.0" encoding="utf-8"?>
<!-- Generator: Adobe Illustrator 21.0.0, SVG Export Plug-In . SVG Version: 6.00 Build 0)  -->
<svg version="1.1" id="Layer_1" xmlns="http://www.w3.org/2000/svg" xmlns:xlink="http://www.w3.org/1999/xlink" x="0px" y="0px"
	 viewBox="0 0 500 500" style="enable-background:new 0 0 500 500;" xml:space="preserve">
<style type="text/css">
	.st0{fill:#353635;}
</style>
<g>
	<path class="st0" d="M423.1,241L250,80.3L76.9,241c-2.4,2.3-2.6,6.1-0.3,8.5c2.3,2.4,6.1,2.6,8.5,0.3l20-18.6v201.3h289.7V231.3
		l20,18.6c1.2,1.1,2.6,1.6,4.1,1.6c1.6,0,3.2-0.6,4.4-1.9C425.7,247.1,425.5,243.3,423.1,241z M382.8,420.5H117.2V220.1L250,96.8
		l132.8,123.3V420.5z"/>
	<path class="st0" d="M153.4,327.9h84.5v-84.5h-84.5V327.9z M165.5,255.5h60.4v60.4h-60.4V255.5z"/>
	<path class="st0" d="M346.6,243.4h-84.5v84.5h84.5V243.4z M334.5,315.9h-60.4v-60.4h60.4V315.9z"/>
</g>
</svg>
