<?xml version="1.0" encoding="utf-8"?>
<!-- Generator: Adobe Illustrator 21.0.0, SVG Export Plug-In . SVG Version: 6.00 Build 0)  -->
<svg version="1.1" id="Layer_1" xmlns="http://www.w3.org/2000/svg" xmlns:xlink="http://www.w3.org/1999/xlink" x="0px" y="0px"
	 viewBox="0 0 500 500" style="enable-background:new 0 0 500 500;" xml:space="preserve">
<style type="text/css">
	.st0{fill:#353635;}
</style>
<g>
	<g>
		<g>
			<path class="st0" d="M362.4,161.6c-13.7-14-33.3-20.1-52.3-16.3c-5.3,1.1-9.7,5-11.3,10.3s-0.2,11.1,3.6,15l0,0l51.1,52.3
				c3.8,3.9,9.5,5.4,14.7,3.7c5.2-1.6,9.1-6.1,10.1-11.5C382.1,195.7,376.1,175.6,362.4,161.6z M368.6,213.2
				c-0.3,1.8-1.6,3.2-3.3,3.7c-1.7,0.5-3.5,0.1-4.7-1.2l-51.1-52.3c-1.2-1.2-1.7-3.1-1.2-4.8c0.5-1.7,1.9-3,3.6-3.4
				c15.8-3.2,32,1.9,43.4,13.5C366.7,180.4,371.7,197,368.6,213.2z"/>
			<path class="st0" d="M379.5,144.2c-34-34.8-89.2-34.8-123.3-0.1c-0.9,0.9-1.7,2-2.6,3c-0.3,0.2-0.6,0.3-0.8,0.5
				c-0.4,0.4-0.7,0.8-0.9,1.3c-21.4,25.3-27.2,60.7-14.9,91.7L114.6,365.8c-2.1,2.1-3.4,4.8-4,7.7l-4.3,21.8c-0.8,4,0,8.2,2.4,11.6
				c2.3,3.4,5.9,5.6,9.9,6.2l26.1,3.8c0.7,0.1,1.4,0.1,2.1,0.1c4,0,7.9-1.7,10.6-4.7c2.8-3,4.2-7,4-11.1l-0.5-10.2
				c-0.1-1.4,0.4-2.7,1.4-3.7c0.9-1,2.2-1.5,3.6-1.4l11.1,0.6c4.1,0.2,8.2-1.4,11.1-4.4c2.9-3,4.5-7.2,4.3-11.4l-0.6-11.2
				c-0.1-1.4,0.4-2.7,1.4-3.7c0.9-1,2.2-1.5,3.6-1.4l11.1,0.6c4.1,0.2,8.2-1.4,11.1-4.4c2.9-3,4.5-7.2,4.3-11.4l-0.6-11.2
				c-0.1-1.4,0.4-2.7,1.4-3.7c0.9-1,2.2-1.5,3.6-1.4l21.7,1.2c1.4,0.1,2.8-0.5,3.8-1.5l32.1-32.8c30.3,12.6,65,6.7,89.7-15.2
				c0.5-0.2,0.9-0.5,1.3-0.9c0.2-0.3,0.4-0.5,0.5-0.8c1-0.9,2-1.7,2.9-2.7C413.5,235.4,413.5,179,379.5,144.2z M247.5,313.9
				l-19.6-1.1c-4.2-0.2-8.2,1.4-11.1,4.4c-2.9,3-4.5,7.1-4.3,11.4l0.6,11.2c0.1,1.4-0.4,2.7-1.4,3.7c-0.9,1-2.2,1.5-3.6,1.4
				l-11.1-0.6c-4.2-0.2-8.2,1.4-11.1,4.4s-4.5,7.1-4.3,11.4l0.6,11.2c0.1,1.4-0.4,2.7-1.4,3.7c-0.9,1-2.2,1.5-3.6,1.4l-11.1-0.6
				c-4.2-0.2-8.2,1.4-11.1,4.4c-2.9,3-4.5,7.1-4.3,11.4l0.5,10.2c0.1,1.4-0.5,2.8-1.5,3.8c-1,1-2.5,1.4-3.8,1.2l-26.1-3.8
				c-1.3-0.2-2.4-0.9-3.2-2c-0.7-1.1-1-2.4-0.7-3.7l4.3-21.9c0.2-0.9,0.6-1.7,1.3-2.4l119.9-122.6c7.9,14.6,19.7,26.7,34,34.8
				L247.5,313.9z M263.2,263c-27.5-28.1-30.2-72.7-6.4-104.1L365,269.6C334.3,293.9,290.7,291.1,263.2,263z M372.6,262.9
				L263.3,151.2c30.2-30.7,79-30.7,109.1,0.1C402.5,182.1,402.6,232,372.6,262.9z"/>
			<path class="st0" d="M235.7,270l-3.4,3.5c-1.4,1.5-1.9,3.6-1.1,5.6c0.8,1.9,2.6,3.1,4.6,3.1l0,0c1.3,0,2.6-0.5,3.5-1.5l3.4-3.5
				c1.9-2,1.9-5.2,0-7.2C240.8,268,237.6,268,235.7,270z"/>
			<path class="st0" d="M223.4,286.2c-1.7-0.5-3.6,0-4.8,1.3l-85.5,87.4c-1.4,1.5-1.9,3.6-1.1,5.6c0.8,1.9,2.6,3.1,4.6,3.1
				c1.3,0,2.6-0.5,3.5-1.5l85.5-87.4c1.3-1.3,1.8-3.2,1.3-4.9C226.4,288,225.1,286.6,223.4,286.2z"/>
		</g>
	</g>
</g>
</svg>
