<?xml version="1.0" encoding="utf-8"?>
<!-- Generator: Adobe Illustrator 21.0.0, SVG Export Plug-In . SVG Version: 6.00 Build 0)  -->
<svg version="1.1" id="Layer_1" xmlns="http://www.w3.org/2000/svg" xmlns:xlink="http://www.w3.org/1999/xlink" x="0px" y="0px"
	 viewBox="0 0 500 500" style="enable-background:new 0 0 500 500;" xml:space="preserve">
<style type="text/css">
	.st0{fill:#353635;}
</style>
<path class="st0" d="M384.5,84.1c-20,0-36.2,16.2-36.2,36.2c0,6.2,1.6,12.1,4.4,17.3l-59.3,59.3c-8.2-6.4-18.4-10.2-29.5-10.2
	c-11.1,0-21.4,3.8-29.6,10.2L188,150.6c2.1-3.6,3.4-7.7,3.4-12.2c0-13.3-10.8-24.1-24.1-24.1c-13.3,0-24.1,10.8-24.1,24.1
	s10.8,24.1,24.1,24.1c4.5,0,8.6-1.3,12.2-3.4l46.3,46.3c-6.4,8.2-10.2,18.4-10.2,29.6c0,11.1,3.8,21.4,10.2,29.5l-76.4,76.4
	c-6.4-5.8-14.9-9.4-24.3-9.4c-20,0-36.2,16.2-36.2,36.2c0,20,16.2,36.2,36.2,36.2s36.2-16.2,36.2-36.2c0-6.2-1.6-12.1-4.4-17.3
	l77.4-77.4c6.7,5.2,14.7,8.7,23.5,9.8v61.3c-17.1,2.9-30.2,17.8-30.2,35.7c0,20,16.2,36.2,36.2,36.2s36.2-16.2,36.2-36.2
	c0-17.9-13.1-32.8-30.2-35.7v-61.3c8.8-1.1,16.8-4.6,23.5-9.8l46.3,46.3c-2.1,3.6-3.4,7.7-3.4,12.2c0,13.3,10.8,24.1,24.1,24.1
	c13.3,0,24.1-10.8,24.1-24.1c0-13.3-10.8-24.1-24.1-24.1c-4.5,0-8.6,1.3-12.2,3.4l-46.3-46.3c6.4-8.2,10.2-18.4,10.2-29.6
	c0-11.1-3.8-21.4-10.2-29.5l58.3-58.3c6.4,5.8,14.9,9.4,24.3,9.4c20,0,36.2-16.2,36.2-36.2S404.5,84.1,384.5,84.1z M155.2,138.4
	c0-6.7,5.4-12.1,12.1-12.1s12.1,5.4,12.1,12.1s-5.4,12.1-12.1,12.1S155.2,145,155.2,138.4z M125.1,391.8
	c-13.3,0-24.1-10.8-24.1-24.1c0-13.3,10.8-24.1,24.1-24.1s24.1,10.8,24.1,24.1C149.2,381,138.4,391.8,125.1,391.8z M288,379.7
	c0,13.3-10.8,24.1-24.1,24.1c-13.3,0-24.1-10.8-24.1-24.1c0-13.3,10.8-24.1,24.1-24.1C277.2,355.6,288,366.4,288,379.7z
	 M263.8,271.1c-20,0-36.2-16.2-36.2-36.2s16.2-36.2,36.2-36.2S300,215,300,234.9S283.8,271.1,263.8,271.1z M372.5,331.5
	c0,6.7-5.4,12.1-12.1,12.1s-12.1-5.4-12.1-12.1s5.4-12.1,12.1-12.1S372.5,324.8,372.5,331.5z M384.5,144.4
	c-13.3,0-24.1-10.8-24.1-24.1s10.8-24.1,24.1-24.1c13.3,0,24.1,10.8,24.1,24.1S397.8,144.4,384.5,144.4z"/>
</svg>
