<?xml version="1.0" encoding="utf-8"?>
<!-- Generator: Adobe Illustrator 21.0.0, SVG Export Plug-In . SVG Version: 6.00 Build 0)  -->
<svg version="1.1" id="Layer_1" xmlns="http://www.w3.org/2000/svg" xmlns:xlink="http://www.w3.org/1999/xlink" x="0px" y="0px"
	 viewBox="0 0 500 500" style="enable-background:new 0 0 500 500;" xml:space="preserve">
<style type="text/css">
	.st0{fill:#353635;}
</style>
<g>
	<path class="st0" d="M314.9,91.8H131.2v340h266.4V174.5L314.9,91.8z M318.3,111.2l60,60h-60V111.2z M142.6,420.5V103.2h164.3v79.3
		h79.3v238H142.6z"/>
	<path class="st0" d="M187.9,176.8h51c3.1,0,5.7-2.5,5.7-5.7c0-3.1-2.5-5.7-5.7-5.7h-51c-3.1,0-5.7,2.5-5.7,5.7
		C182.2,174.3,184.8,176.8,187.9,176.8z"/>
	<path class="st0" d="M187.9,222.2h28.3c3.1,0,5.7-2.5,5.7-5.7c0-3.1-2.5-5.7-5.7-5.7h-28.3c-3.1,0-5.7,2.5-5.7,5.7
		C182.2,219.6,184.8,222.2,187.9,222.2z"/>
	<path class="st0" d="M272.9,222.2h39.7c3.1,0,5.7-2.5,5.7-5.7c0-3.1-2.5-5.7-5.7-5.7h-39.7c-3.1,0-5.7,2.5-5.7,5.7
		C267.2,219.6,269.8,222.2,272.9,222.2z"/>
	<path class="st0" d="M240.6,212.5c-1.1,1-1.6,2.5-1.6,4c0,1.5,0.6,2.9,1.6,4c1.1,1,2.6,1.6,4,1.6c1.5,0,2.9-0.6,4-1.7
		c1-1,1.6-2.5,1.6-4c0-1.5-0.6-3-1.6-4C246.4,210.4,242.7,210.4,240.6,212.5z"/>
	<path class="st0" d="M340.9,222.2c1.5,0,2.9-0.6,4-1.6c1-1.1,1.6-2.6,1.6-4c0-1.5-0.6-3-1.6-4c-2.2-2.1-5.9-2.1-8,0
		c-1,1.1-1.6,2.5-1.6,4c0,1.5,0.6,2.9,1.6,4C338,221.5,339.4,222.2,340.9,222.2z"/>
	<path class="st0" d="M255.9,256.2h-39.7c-3.1,0-5.7,2.5-5.7,5.7s2.5,5.7,5.7,5.7h39.7c3.1,0,5.7-2.5,5.7-5.7
		C261.6,258.7,259,256.2,255.9,256.2z"/>
	<path class="st0" d="M187.9,267.5c1.5,0,2.9-0.6,4-1.6c1.1-1.1,1.6-2.6,1.6-4c0-1.5-0.6-3-1.6-4c-2.2-2.1-5.9-2.1-8,0
		c-1.1,1.1-1.6,2.5-1.6,4c0,1.5,0.6,2.9,1.6,4C185,266.9,186.4,267.5,187.9,267.5z"/>
	<path class="st0" d="M205.7,319.4c-12.4,6.5-16.6,18.8-18.1,31.6c-2.3-2-4.7-3.9-7-5.9c-5.6-4.7-13.6,3.3-8,8
		c5.3,4.4,10.6,8.9,15.9,13.3c3.7,3.1,9.5,1.2,9.7-4c0.4-12.3,1-26.9,13.3-33.3C217.9,325.9,212.2,316.1,205.7,319.4z"/>
	<path class="st0" d="M359.3,287.4c-1.3-0.5-1.9-1.5-2.1-2c-0.2-0.6-0.5-1.7,0.1-2.9c2.7-5.8,1.6-12.5-2.9-17
		c-4.5-4.5-11.2-5.7-17-2.9c-1.3,0.6-2.4,0.3-3,0.1c-0.6-0.2-1.6-0.8-2-2.1c-2.1-6-7.7-9.9-14.1-9.9c-6.4,0-11.9,3.9-14.1,9.9
		c-0.5,1.3-1.5,1.9-2,2.1c-0.5,0.2-1.7,0.5-2.9-0.1c-5.8-2.7-12.5-1.6-17,2.9c-4.5,4.5-5.7,11.2-2.9,17c0.6,1.3,0.3,2.4,0.1,3
		c-0.2,0.6-0.8,1.6-2.1,2c-6,2.1-9.9,7.7-9.9,14.1s3.9,11.9,9.9,14.1c1.3,0.5,1.9,1.5,2.1,2c0.2,0.6,0.5,1.7-0.1,2.9
		c-2.7,5.8-1.6,12.5,2.9,17c2.2,2.2,4.9,3.6,7.7,4.1v69.8l28.3-28.3l28.3,28.3v-69.8c2.8-0.5,5.5-1.9,7.7-4.1
		c4.5-4.5,5.7-11.2,2.9-17c-0.6-1.3-0.3-2.4-0.1-3c0.2-0.6,0.8-1.6,2.1-2c6-2.1,9.9-7.7,9.9-14.1S365.4,289.6,359.3,287.4z
		 M318.3,367.2l-17,17v-44c0.1,0,0.1,0,0.1,0c0.3,0.1,0.6,0.1,0.7,0.2c0.3,0.1,0.7,0.3,1,0.7c0.4,0.3,0.7,0.8,1,1.5
		c2.1,6,7.7,9.9,14.1,9.9c6.4,0,11.9-3.9,14.1-9.9c0.2-0.7,0.6-1.1,1-1.5c0.4-0.3,0.8-0.5,1-0.7c0.2-0.1,0.4-0.1,0.7-0.2
		c0,0,0.1,0,0.1,0v44L318.3,367.2z M355.5,304.9c-4,1.4-7.2,4.5-8.8,8.4c-1.6,3.9-1.5,8.3,0.3,12.2c1,2.1-0.2,3.6-0.7,4.1
		c-0.4,0.5-1.6,1.3-3.2,1l-1.2-0.4c-0.5-0.2-1.1-0.4-1.6-0.5c-0.4-0.1-0.8-0.3-1.2-0.4c-0.6-0.1-1.1-0.2-1.7-0.2
		c-0.5-0.1-0.9-0.1-1.4-0.2c-0.5,0-1.1,0.1-1.6,0.1c-0.5,0-0.9,0-1.4,0.1c-1,0.2-2,0.5-2.9,0.9c0,0,0,0,0,0l0,0
		c-0.2,0.1-0.5,0.3-0.7,0.4c-0.7,0.3-1.4,0.7-2.1,1.1c-0.8,0.5-1.5,1.2-2.1,1.8c-0.1,0.1-0.2,0.1-0.2,0.2c-1.4,1.5-2.5,3.3-3.3,5.3
		c-0.8,2.2-2.6,2.4-3.4,2.4c-0.8,0-2.6-0.2-3.4-2.4c-0.7-2-1.8-3.8-3.3-5.3c-0.1-0.1-0.1-0.1-0.2-0.2c-0.7-0.7-1.4-1.3-2.2-1.9
		c-0.6-0.4-1.3-0.7-2-1.1c-0.3-0.1-0.5-0.3-0.8-0.4l0,0c0,0,0,0,0,0c-0.1-0.1-0.2-0.1-0.4-0.1c-0.8-0.3-1.7-0.6-2.5-0.7
		c-0.7-0.1-1.4-0.2-2.1-0.2c-0.3,0-0.5-0.1-0.8-0.1c0,0,0,0,0,0c-2.1,0-4.2,0.4-5.9,1.3l-1.3,0.4c-1.6,0.4-2.8-0.5-3.3-0.9
		c-0.5-0.5-1.7-2-0.7-4.1c1.8-3.8,1.9-8.2,0.3-12.2c-1.6-3.9-4.8-7-8.8-8.4c-2.2-0.8-2.4-2.6-2.4-3.4c0-0.8,0.2-2.6,2.4-3.4
		c4-1.4,7.2-4.5,8.8-8.4c1.6-3.9,1.5-8.3-0.3-12.2c-1-2.1,0.2-3.6,0.7-4.1c0.5-0.5,2-1.7,4.1-0.7c3.8,1.8,8.2,1.9,12.2,0.3
		c3.9-1.6,7-4.8,8.4-8.8c0.8-2.2,2.6-2.4,3.4-2.4c0.8,0,2.6,0.2,3.4,2.4c1.4,4,4.5,7.2,8.4,8.8c3.9,1.6,8.3,1.5,12.2-0.3
		c2.1-1,3.6,0.2,4.1,0.7c0.5,0.5,1.7,2,0.7,4.1c-1.8,3.8-1.9,8.2-0.3,12.2c1.6,3.9,4.8,7,8.8,8.4c2.2,0.8,2.4,2.6,2.4,3.4
		C357.9,302.3,357.7,304.2,355.5,304.9z"/>
</g>
</svg>
