<?xml version="1.0" encoding="utf-8"?>
<!-- Generator: Adobe Illustrator 21.0.0, SVG Export Plug-In . SVG Version: 6.00 Build 0)  -->
<svg version="1.1" id="Layer_1" xmlns="http://www.w3.org/2000/svg" xmlns:xlink="http://www.w3.org/1999/xlink" x="0px" y="0px"
	 viewBox="0 0 500 500" style="enable-background:new 0 0 500 500;" xml:space="preserve">
<style type="text/css">
	.st0{fill:#353635;}
</style>
<g>
	<path class="st0" d="M309.7,67.1H114.4v361.5h283.2V155L309.7,67.1z M313.2,87.6l63.8,63.8h-63.8V87.6z M126.4,416.6V79.1h174.7
		v84.4h84.4v253.1H126.4z"/>
	<path class="st0" d="M331.3,193.6h-96.4c-3.3,0-6,2.7-6,6c0,3.3,2.7,6,6,6h96.4c3.3,0,6-2.7,6-6
		C337.3,196.3,334.6,193.6,331.3,193.6z"/>
	<path class="st0" d="M213,176.9l-25.9,20.7l-8.2-8.2c-2.4-2.4-6.2-2.4-8.5,0c-2.4,2.4-2.4,6.2,0,8.5l12.1,12.1
		c1.2,1.2,2.7,1.8,4.3,1.8c1.3,0,2.7-0.4,3.8-1.3l30.1-24.1c2.6-2.1,3-5.9,0.9-8.5C219.4,175.2,215.6,174.8,213,176.9z"/>
	<path class="st0" d="M331.3,259.9h-96.4c-3.3,0-6,2.7-6,6c0,3.3,2.7,6,6,6h96.4c3.3,0,6-2.7,6-6
		C337.3,262.6,334.6,259.9,331.3,259.9z"/>
	<path class="st0" d="M213,243.1l-25.9,20.7l-8.2-8.2c-2.4-2.4-6.2-2.4-8.5,0c-2.4,2.4-2.4,6.2,0,8.5l12.1,12.1
		c1.2,1.2,2.7,1.8,4.3,1.8c1.3,0,2.7-0.4,3.8-1.3l30.1-24.1c2.6-2.1,3-5.9,0.9-8.5C219.4,241.5,215.6,241.1,213,243.1z"/>
	<path class="st0" d="M331.3,326.2h-96.4c-3.3,0-6,2.7-6,6c0,3.3,2.7,6,6,6h96.4c3.3,0,6-2.7,6-6
		C337.3,328.9,334.6,326.2,331.3,326.2z"/>
	<path class="st0" d="M213,309.4l-25.9,20.7l-8.2-8.2c-2.4-2.4-6.2-2.4-8.5,0s-2.4,6.2,0,8.5l12.1,12.1c1.2,1.2,2.7,1.8,4.3,1.8
		c1.3,0,2.7-0.4,3.8-1.3l30.1-24.1c2.6-2.1,3-5.9,0.9-8.5C219.4,307.8,215.6,307.3,213,309.4z"/>
</g>
</svg>
