<?xml version="1.0" encoding="iso-8859-1"?>
<!-- Generator: Adobe Illustrator 19.0.0, SVG Export Plug-In . SVG Version: 6.00 Build 0)  -->
<svg version="1.1" id="Capa_1" xmlns="http://www.w3.org/2000/svg" xmlns:xlink="http://www.w3.org/1999/xlink" x="0px" y="0px"
	 viewBox="0 0 511.897 511.897" style="enable-background:new 0 0 511.897 511.897;" xml:space="preserve">
<g>
	<g>
		<g>
			<path d="M438.967,78.578c-23.466-23.466-57.08-33.7-89.642-27.292c-9.129,1.765-16.54,8.423-19.269,17.312
				s-0.331,18.558,6.235,25.142l0,0l87.512,87.513c6.584,6.566,16.253,8.964,25.142,6.235s15.547-10.139,17.312-19.269
				C472.667,135.658,462.433,102.044,438.967,78.578z M449.509,164.945c-0.549,2.973-2.722,5.385-5.621,6.242
				c-2.835,0.908-5.94,0.133-8.017-2l-87.512-87.513c-2.134-2.076-2.908-5.181-2-8.017c0.857-2.899,3.269-5.072,6.242-5.621
				c26.987-5.32,54.85,3.159,74.3,22.609C446.35,110.095,454.829,137.958,449.509,164.945z"/>
			<path d="M468.159,49.387C409.877-8.895,315.396-8.936,257.063,49.295c-1.587,1.586-2.984,3.306-4.491,4.95
				c-0.485,0.256-0.944,0.56-1.368,0.908c-0.613,0.66-1.114,1.415-1.485,2.236c-36.674,42.343-46.522,101.669-25.495,153.59
				L14.663,420.536c-3.511,3.503-5.894,7.977-6.841,12.846l-7.309,36.433c-1.392,6.766,0.078,13.807,4.06,19.451
				c3.983,5.644,10.123,9.389,16.965,10.345l44.696,6.388c1.185,0.166,2.379,0.249,3.576,0.25c6.89,0.004,13.479-2.828,18.219-7.829
				c4.74-5.001,7.213-11.732,6.84-18.613l-0.933-17.037c-0.125-2.296,0.738-4.536,2.371-6.154c1.586-1.638,3.806-2.505,6.083-2.375
				l18.925,1.058c7.088,0.29,13.98-2.371,19.033-7.35c5.029-5.048,7.696-11.983,7.346-19.1l-1.05-18.787
				c-0.125-2.296,0.738-4.536,2.371-6.154c1.58-1.647,3.805-2.516,6.083-2.375l18.925,1.058c7.088,0.287,13.978-2.374,19.033-7.35
				c5.029-5.048,7.696-11.983,7.346-19.1l-1.05-18.787c-0.124-2.296,0.738-4.535,2.371-6.154c1.615-1.608,3.827-2.469,6.104-2.375
				l37.246,1.992c2.42,0.147,4.786-0.76,6.488-2.487l55.007-55.007c51.921,21.027,111.247,11.179,153.59-25.495
				c0.82-0.371,1.576-0.873,2.236-1.485c0.348-0.424,0.653-0.882,0.908-1.368c1.644-1.506,3.364-2.904,4.95-4.491
				C526.482,202.15,526.441,107.669,468.159,49.387z M242.184,333.569l-33.5-1.792c-7.108-0.34-14.029,2.34-19.054,7.379
				c-5.025,5.039-7.686,11.968-7.325,19.075l1.05,18.792c0.124,2.294-0.737,4.531-2.367,6.15c-1.611,1.6-3.814,2.459-6.083,2.371
				l-18.929-1.058c-7.108-0.34-14.029,2.34-19.054,7.379c-5.025,5.039-7.686,11.968-7.325,19.075l1.05,18.792
				c0.116,2.281-0.735,4.505-2.343,6.127c-1.608,1.622-3.825,2.491-6.107,2.394l-18.929-1.058
				c-7.107-0.34-14.026,2.339-19.051,7.376c-5.025,5.037-7.686,11.964-7.328,19.07l0.938,17.063c0.147,2.41-0.807,4.757-2.596,6.379
				c-1.789,1.618-4.203,2.358-6.592,2.021L23.95,482.72c-2.208-0.303-4.19-1.514-5.467-3.342c-1.26-1.785-1.713-4.016-1.25-6.15
				l7.346-36.621c0.299-1.52,1.048-2.915,2.15-4.004l205.34-205.336c13.534,24.497,33.711,44.674,58.208,58.209L242.184,333.569z
				 M269.089,248.456C222.033,201.4,217.314,126.693,258.075,74.09l185.38,185.38C390.852,300.231,316.145,295.512,269.089,248.456z
				 M456.35,248.232L269.314,61.195c51.709-51.41,135.252-51.336,186.87,0.166C507.679,112.982,507.753,196.52,456.35,248.232z"/>
			<path d="M221.925,260.128l-5.858,5.858c-2.44,2.44-3.169,6.11-1.849,9.298c1.32,3.188,4.431,5.267,7.882,5.268l0.001,0.001
				c2.264,0.003,4.435-0.897,6.033-2.5l5.858-5.858c3.332-3.332,3.332-8.734,0-12.067
				C230.66,256.796,225.257,256.796,221.925,260.128z"/>
			<path d="M200.884,287.203c-2.944-0.789-6.086,0.053-8.242,2.208L46.23,435.824c-2.44,2.441-3.169,6.11-1.849,9.298
				c1.32,3.188,4.431,5.267,7.882,5.268c2.264,0.003,4.435-0.897,6.033-2.5l146.413-146.412c2.156-2.156,2.997-5.297,2.208-8.242
				C206.128,290.292,203.828,287.992,200.884,287.203z"/>
		</g>
	</g>
</g>
<g>
</g>
<g>
</g>
<g>
</g>
<g>
</g>
<g>
</g>
<g>
</g>
<g>
</g>
<g>
</g>
<g>
</g>
<g>
</g>
<g>
</g>
<g>
</g>
<g>
</g>
<g>
</g>
<g>
</g>
</svg>
